<?xml version="1.0" standalone="no"?>
<!DOCTYPE svg PUBLIC "-//W3C//DTD SVG 20010904//EN"
 "http://www.w3.org/TR/2001/REC-SVG-20010904/DTD/svg10.dtd">
<svg version="1.0" xmlns="http://www.w3.org/2000/svg"
 width="1485.000000pt" height="523.000000pt" viewBox="0 0 1485.000000 523.000000"
 preserveAspectRatio="xMidYMid meet">

<g transform="translate(0.000000,523.000000) scale(0.100000,-0.100000)"
fill="#000000" stroke="none">
<path d="M7569 5214 c-131 -40 -214 -194 -175 -327 35 -120 133 -197 250 -197
l62 0 107 -276 107 -276 -190 -218 c-104 -120 -193 -221 -197 -223 -5 -2 -165
20 -358 49 -192 30 -358 54 -367 54 -9 0 -122 -116 -254 -260 -190 -207 -242
-258 -259 -255 -11 3 -153 27 -315 55 -162 28 -296 53 -298 55 -6 6 -212 535
-218 561 -5 18 1 29 24 49 38 32 80 115 88 176 22 159 -135 317 -293 295 -234
-32 -326 -314 -153 -469 54 -49 103 -67 181 -67 l54 0 113 -293 c61 -160 117
-305 122 -322 9 -27 15 -30 53 -32 23 -1 186 -27 362 -57 176 -31 325 -56 331
-56 6 0 118 117 249 261 229 250 240 260 269 255 87 -16 701 -106 707 -104 3
2 86 95 184 208 98 113 194 223 213 244 l35 39 310 -52 c170 -28 314 -54 318
-57 5 -3 9 -14 9 -25 0 -36 31 -94 73 -137 166 -170 457 -54 457 184 0 189
-200 313 -377 235 -57 -25 -119 -86 -135 -132 -8 -23 -15 -28 -31 -24 -12 3
-154 28 -315 55 -160 27 -296 51 -300 54 -5 3 -55 125 -111 270 l-103 266 45
50 c58 64 81 132 74 211 -10 113 -82 202 -190 234 -61 18 -98 18 -158 -1z
m158 -105 c63 -31 97 -92 91 -165 -8 -96 -72 -154 -168 -154 -72 0 -128 37
-154 99 -21 53 -20 86 3 136 43 93 137 128 228 84z m-2360 -740 c40 -15 73
-48 94 -94 23 -50 24 -83 3 -136 -60 -149 -295 -125 -320 33 -10 56 4 105 39
145 51 58 118 77 184 52z m3624 -234 c47 -25 79 -82 79 -141 0 -145 -170 -217
-279 -118 -146 131 23 350 200 259z"/>
<path d="M2110 3180 l0 -315 20 33 c20 32 21 47 18 298 -3 235 -5 265 -20 281
-17 16 -18 2 -18 -297z"/>
<path d="M1640 3331 c0 -55 2 -62 15 -51 19 16 19 70 0 96 -13 17 -14 13 -15
-45z"/>
<path d="M1135 3360 c-139 -21 -251 -76 -345 -170 -76 -76 -118 -144 -156
-255 -51 -152 -44 -414 17 -554 12 -28 23 -50 25 -48 2 1 -4 30 -13 62 -25 88
-24 336 1 430 67 256 240 425 490 480 99 22 266 16 376 -14 41 -11 76 -18 78
-17 10 11 -160 68 -239 81 -100 16 -153 17 -234 5z"/>
<path d="M13860 2840 l0 -475 25 38 26 37 -3 415 -3 414 -22 23 -23 22 0 -474z"/>
<path d="M10400 2582 l0 -652 25 0 25 0 -2 630 -3 629 -22 23 -23 22 0 -652z"/>
<path d="M7670 3056 c0 -12 10 -16 38 -16 38 1 32 10 -15 24 -17 6 -23 3 -23
-8z"/>
<path d="M3520 2771 l-275 -159 0 -323 0 -322 23 -14 22 -15 0 276 c0 307 3
325 61 368 19 14 131 81 249 149 200 116 219 124 268 124 28 0 52 1 52 1 0 2
-121 74 -123 74 -1 0 -126 -72 -277 -159z"/>
<path d="M2303 2885 c-62 -31 -137 -109 -166 -173 -21 -45 -22 -61 -25 -439
l-3 -393 -51 0 c-50 0 -51 0 -33 -20 24 -27 76 -26 101 1 18 20 19 45 25 368
3 201 10 359 16 376 22 63 64 136 100 171 71 72 213 112 306 86 49 -14 39 3
-17 29 -65 29 -187 26 -253 -6z"/>
<path d="M7670 2718 l0 -162 30 29 c38 37 126 163 145 209 8 20 15 47 15 61 0
25 0 25 -95 25 l-95 0 0 -162z"/>
<path d="M2887 2800 c3 -14 8 -151 10 -305 2 -154 4 -355 6 -448 l2 -167 -49
0 c-48 0 -49 0 -31 -20 24 -27 76 -26 101 1 18 20 19 43 22 366 3 371 -5 466
-47 554 -12 24 -18 33 -14 19z"/>
<path d="M5030 2809 c-14 -4 -58 -17 -97 -29 l-73 -21 0 -58 0 -59 111 42 111
41 -7 40 c-7 49 -13 55 -45 44z"/>
<path d="M9682 2787 c-29 -31 -70 -124 -82 -187 -13 -66 -13 -150 -1 -150 20
0 120 175 142 249 22 75 -17 133 -59 88z"/>
<path d="M5404 2754 c-25 -43 -26 -48 -12 -72 15 -24 14 -26 -18 -54 -59 -52
-50 -58 96 -58 72 0 130 3 130 6 0 9 -149 212 -160 219 -5 3 -21 -15 -36 -41z"/>
<path d="M14292 2611 c-95 -99 -172 -182 -172 -186 0 -4 14 -25 32 -47 l31
-40 12 36 c12 35 116 155 235 271 74 72 97 110 79 131 -6 8 -19 14 -28 14 -9
0 -94 -81 -189 -179z"/>
<path d="M13378 2736 c-9 -36 -16 -45 -28 -40 -83 37 -131 47 -225 47 -112 0
-179 -19 -254 -73 -149 -109 -204 -366 -115 -541 13 -27 26 -49 28 -49 2 0 -3
23 -10 52 -41 156 9 352 116 452 107 100 246 135 418 105 81 -14 112 -3 112
40 0 16 -7 34 -15 41 -12 10 -16 5 -27 -34z"/>
<path d="M11672 2745 c-69 -19 -86 -29 -139 -78 -116 -107 -161 -324 -104
-505 10 -31 28 -73 40 -92 13 -19 20 -26 16 -15 -29 85 -37 146 -32 230 15
244 147 401 347 413 41 2 92 -1 114 -6 37 -11 38 -10 21 8 -41 45 -178 69
-263 45z"/>
<path d="M6596 2701 c-14 -15 -15 -24 -7 -40 11 -20 78 -71 93 -71 9 0 0 72
-13 108 -11 28 -49 29 -73 3z"/>
<path d="M4650 2645 c0 -31 -16 -32 -47 -3 l-23 21 0 -255 c0 -299 10 -558 21
-558 10 0 29 66 29 103 0 17 5 27 15 27 13 0 15 45 15 345 0 190 -2 345 -5
345 -3 0 -5 -11 -5 -25z"/>
<path d="M8353 2650 c-31 -18 -53 -48 -53 -69 0 -7 34 -11 95 -11 l95 0 -25
50 c-21 42 -30 50 -53 50 -15 0 -41 -9 -59 -20z"/>
<path d="M4498 2253 l-3 -376 -160 -94 c-88 -51 -244 -141 -347 -201 -104 -59
-188 -110 -188 -113 0 -4 10 -9 23 -13 56 -15 85 -5 233 80 82 47 215 124 296
171 81 46 158 97 172 113 32 39 39 131 34 485 -3 239 -5 274 -21 298 -9 15
-22 27 -27 27 -6 0 -11 -143 -12 -377z"/>
<path d="M6170 2535 c1 -79 1 -79 17 -51 16 31 13 100 -6 119 -8 8 -11 -12
-11 -68z"/>
<path d="M9132 2530 c0 -59 1 -62 10 -32 8 22 8 42 0 65 -9 29 -10 26 -10 -33z"/>
<path d="M12290 2558 c0 -4 7 -37 16 -75 36 -153 1 -370 -80 -496 -118 -186
-389 -287 -621 -233 -33 8 -61 13 -63 12 -4 -5 89 -43 138 -56 61 -17 203 -17
270 -1 133 32 244 106 315 210 104 153 130 368 65 556 -18 53 -39 97 -40 83z"/>
<path d="M5336 2363 c14 -110 50 -197 103 -247 l31 -30 0 30 c0 31 46 136 82
186 12 17 27 46 33 65 l12 35 53 -67 c62 -78 63 -68 -34 -198 -36 -49 -66 -93
-66 -97 0 -9 62 -30 87 -30 14 0 83 98 83 116 0 7 21 34 46 60 70 74 69 71 12
152 l-51 72 -198 0 -199 0 6 -47z"/>
<path d="M6043 2403 c9 -2 25 -2 35 0 9 3 1 5 -18 5 -19 0 -27 -2 -17 -5z"/>
<path d="M8296 2363 c14 -109 50 -197 102 -246 l29 -28 7 41 c7 44 37 109 86
187 16 26 30 57 30 70 0 23 -1 23 -130 23 l-130 0 6 -47z"/>
<path d="M9003 2403 c9 -2 25 -2 35 0 9 3 1 5 -18 5 -19 0 -27 -2 -17 -5z"/>
<path d="M13913 2241 l-53 -59 0 -211 0 -211 -57 0 c-55 0 -56 0 -38 -20 25
-28 95 -28 121 1 17 18 20 42 24 193 4 136 9 178 22 203 17 30 57 68 81 76 8
2 2 18 -17 45 -16 23 -29 42 -30 42 0 0 -25 -27 -53 -59z"/>
<path d="M1640 1969 c0 -22 -8 -30 -51 -48 -124 -54 -191 -65 -404 -65 -180 0
-207 2 -265 21 -91 31 -87 21 7 -15 114 -44 183 -56 323 -56 287 -1 475 78
405 170 -14 18 -14 18 -15 -7z"/>
<path d="M5405 1840 c-14 -22 -25 -42 -25 -44 0 -3 16 -16 36 -30 l37 -25 38
48 c22 27 39 51 39 54 0 4 -86 37 -97 37 -1 0 -14 -18 -28 -40z"/>
<path d="M4720 1851 c29 -55 117 -91 178 -73 46 14 83 49 61 57 -79 28 -112
35 -176 35 -70 0 -73 -1 -63 -19z"/>
<path d="M11090 1793 l0 -33 -402 0 -402 0 22 -22 23 -23 375 0 376 0 19 24
c23 28 24 41 4 67 -14 18 -14 17 -15 -13z"/>
<path d="M1435 1711 c-93 -54 -244 -141 -335 -194 l-165 -95 -5 -368 -5 -369
-218 -113 -218 -113 -44 39 c-54 47 -114 66 -192 60 -237 -18 -334 -305 -158
-467 45 -41 121 -71 181 -71 53 0 143 39 183 79 57 57 76 104 78 195 l2 79 53
29 c29 16 128 68 219 115 l166 85 313 -181 c172 -100 317 -181 322 -181 5 0
162 88 348 196 l340 196 0 392 0 392 -337 194 c-185 107 -341 196 -347 198 -6
1 -87 -42 -181 -97z m470 -179 l290 -168 2 -340 3 -339 -262 -150 c-143 -82
-275 -158 -293 -169 l-33 -19 -291 168 -291 168 0 341 0 341 288 167 c158 91
289 167 292 167 3 0 136 -75 295 -167z m-1544 -1095 c113 -76 104 -239 -17
-297 -104 -51 -219 12 -239 131 -10 56 30 136 82 167 52 30 129 30 174 -1z"/>
<path d="M2758 1642 c-158 -92 -310 -179 -338 -194 l-50 -28 0 -398 0 -397
340 -197 341 -196 339 195 340 196 0 398 0 397 -340 196 c-186 108 -340 196
-342 195 -2 0 -132 -76 -290 -167z m593 -118 l289 -167 0 -336 0 -337 -291
-168 c-169 -97 -298 -166 -307 -163 -10 3 -141 76 -292 164 l-275 160 0 344 0
343 280 163 c154 89 286 162 294 163 7 0 144 -75 302 -166z"/>
<path d="M2596 748 c-14 -23 -24 -43 -23 -44 8 -7 471 -274 472 -272 23 36 46
80 44 82 -2 2 -71 43 -154 91 -82 48 -187 109 -232 136 l-82 48 -25 -41z"/>
<path d="M13348 1782 c-128 -42 -305 -54 -428 -28 -36 8 -66 13 -68 11 -5 -5
105 -44 156 -56 64 -15 202 -15 290 1 81 13 126 42 120 75 -3 20 -4 20 -70 -3z"/>
<path d="M14431 1744 c37 -37 150 -37 157 -1 3 15 -8 17 -84 17 -80 0 -87 -1
-73 -16z"/>
</g>
</svg>
